<svg xmlns="http://www.w3.org/2000/svg" xmlns:xlink="http://www.w3.org/1999/xlink" width="2000" zoomAndPan="magnify" viewBox="0 0 1500 1499.999933" height="2000" preserveAspectRatio="xMidYMid meet" version="1.0"><defs><g/></defs><rect x="-150" width="1800" fill="#ffffff" y="-149.999993" height="1799.99992" fill-opacity="1"/><rect x="-150" width="1800" fill="#000000" y="-149.999993" height="1799.99992" fill-opacity="1"/><path fill="#ffffff" d="M 646.675781 954.789062 C 545.074219 923.800781 464.613281 840.941406 436.703125 738.546875 C 433.261719 725.949219 420.253906 718.488281 407.65625 721.953125 C 395.050781 725.394531 387.621094 738.394531 391.050781 751 C 423.210938 868.9375 515.859375 964.367188 632.863281 1000.046875 C 635.15625 1000.757812 637.488281 1001.089844 639.769531 1001.089844 C 649.90625 1001.089844 659.273438 994.511719 662.394531 984.320312 C 666.214844 971.828125 659.164062 958.605469 646.675781 954.789062 Z M 646.675781 954.789062 " fill-opacity="1" fill-rule="nonzero"/><path fill="#ffffff" d="M 412.601562 502.140625 C 407.007812 513.957031 412.054688 528.054688 423.859375 533.648438 C 435.6875 539.242188 449.773438 534.191406 455.367188 522.386719 C 506.882812 413.570312 617.902344 343.261719 738.167969 343.261719 C 910.519531 343.261719 1050.75 483.476562 1050.75 655.839844 C 1050.75 776.121094 980.441406 887.125 871.621094 938.644531 C 859.808594 944.238281 854.769531 958.335938 860.363281 970.136719 C 864.40625 978.6875 872.898438 983.691406 881.757812 983.679688 C 885.152344 983.679688 888.59375 982.945312 891.855469 981.410156 C 1017.113281 922.097656 1098.058594 794.308594 1098.058594 655.839844 C 1098.058594 457.398438 936.621094 295.953125 738.167969 295.953125 C 599.699219 295.953125 471.910156 376.882812 412.601562 502.140625 Z M 412.601562 502.140625 " fill-opacity="1" fill-rule="nonzero"/><path fill="#50c878" d="M 1173.914062 772.9375 C 1168.320312 761.136719 1154.269531 756.109375 1142.40625 761.691406 C 1130.605469 767.285156 1125.566406 781.382812 1131.160156 793.199219 C 1185.183594 907.277344 1192.019531 1000.828125 1149.410156 1043.417969 C 1106.773438 1086.039062 1013.234375 1079.191406 899.140625 1025.144531 C 799.453125 978.179688 690.777344 898.527344 593.136719 800.875 C 495.460938 703.183594 415.804688 594.507812 368.839844 494.832031 C 314.816406 380.75 307.992188 287.199219 350.59375 244.601562 C 393.191406 201.988281 486.742188 208.8125 600.824219 262.851562 C 612.640625 268.457031 626.734375 263.394531 632.332031 251.589844 C 637.925781 239.789062 632.886719 225.691406 621.070312 220.085938 C 484.140625 155.25 376.199219 152.066406 317.132812 211.15625 C 258.058594 270.21875 261.242188 378.160156 326.0625 515.042969 C 375.273438 619.5 458.238281 732.882812 559.679688 834.332031 C 661.082031 935.746094 774.476562 1018.722656 878.929688 1067.933594 C 950.742188 1101.949219 1014.570312 1118.992188 1067.566406 1118.992188 C 1115.621094 1118.980469 1154.765625 1104.964844 1182.855469 1076.863281 C 1241.929688 1017.800781 1238.75 909.871094 1173.914062 772.9375 Z M 1173.914062 772.9375 " fill-opacity="1" fill-rule="nonzero"/><g fill="#ffffff" fill-opacity="1"><g transform="translate(97.887461, 1358.838847)"><g><path d="M 93.34375 2.828125 C 76.84375 2.828125 62.425781 -0.785156 50.09375 -8.015625 C 37.757812 -15.242188 28.09375 -25.257812 21.09375 -38.0625 C 14.101562 -50.875 10.609375 -65.6875 10.609375 -82.5 C 10.609375 -99.3125 14.101562 -114.117188 21.09375 -126.921875 C 28.09375 -139.734375 37.757812 -149.753906 50.09375 -156.984375 C 62.425781 -164.210938 76.84375 -167.828125 93.34375 -167.828125 C 109.6875 -167.828125 124.066406 -164.210938 136.484375 -156.984375 C 148.898438 -149.753906 158.5625 -139.734375 165.46875 -126.921875 C 172.382812 -114.117188 175.84375 -99.3125 175.84375 -82.5 C 175.84375 -65.6875 172.382812 -50.875 165.46875 -38.0625 C 158.5625 -25.257812 148.898438 -15.242188 136.484375 -8.015625 C 124.066406 -0.785156 109.6875 2.828125 93.34375 2.828125 Z M 93.34375 -24.28125 C 109.0625 -24.28125 121.59375 -29.460938 130.9375 -39.828125 C 140.289062 -50.203125 144.96875 -64.425781 144.96875 -82.5 C 144.96875 -100.570312 140.289062 -114.789062 130.9375 -125.15625 C 121.59375 -135.53125 109.0625 -140.71875 93.34375 -140.71875 C 77.625 -140.71875 65.050781 -135.53125 55.625 -125.15625 C 46.195312 -114.789062 41.484375 -100.570312 41.484375 -82.5 C 41.484375 -64.425781 46.195312 -50.203125 55.625 -39.828125 C 65.050781 -29.460938 77.625 -24.28125 93.34375 -24.28125 Z M 93.34375 -24.28125 "/></g></g></g><g fill="#ffffff" fill-opacity="1"><g transform="translate(272.553626, 1358.838847)"><g><path d="M 15.328125 0 L 15.328125 -116.921875 L 42.1875 -116.921875 L 45.015625 -95 C 49.265625 -102.539062 55.039062 -108.550781 62.34375 -113.03125 C 69.65625 -117.507812 78.257812 -119.75 88.15625 -119.75 L 88.15625 -87.921875 L 79.671875 -87.921875 C 73.066406 -87.921875 67.171875 -86.898438 61.984375 -84.859375 C 56.804688 -82.816406 52.765625 -79.28125 49.859375 -74.25 C 46.953125 -69.21875 45.5 -62.222656 45.5 -53.265625 L 45.5 0 Z M 15.328125 0 "/></g></g></g><g fill="#ffffff" fill-opacity="1"><g transform="translate(354.111564, 1358.838847)"><g><path d="M 84.625 2.828125 C 75.820312 2.828125 68.117188 1.175781 61.515625 -2.125 C 54.921875 -5.425781 49.582031 -10.0625 45.5 -16.03125 L 42.1875 0 L 15.328125 0 L 15.328125 -169.71875 L 45.5 -169.71875 L 45.5 -100.1875 C 49.269531 -105.363281 54.253906 -109.914062 60.453125 -113.84375 C 66.660156 -117.78125 74.71875 -119.75 84.625 -119.75 C 95.625 -119.75 105.441406 -117.078125 114.078125 -111.734375 C 122.722656 -106.390625 129.5625 -99.082031 134.59375 -89.8125 C 139.625 -80.539062 142.140625 -70.007812 142.140625 -58.21875 C 142.140625 -46.4375 139.625 -35.945312 134.59375 -26.75 C 129.5625 -17.5625 122.722656 -10.332031 114.078125 -5.0625 C 105.441406 0.195312 95.625 2.828125 84.625 2.828125 Z M 78.265625 -23.578125 C 87.847656 -23.578125 95.78125 -26.796875 102.0625 -33.234375 C 108.351562 -39.679688 111.5 -48.007812 111.5 -58.21875 C 111.5 -68.4375 108.351562 -76.84375 102.0625 -83.4375 C 95.78125 -90.039062 87.847656 -93.34375 78.265625 -93.34375 C 68.515625 -93.34375 60.535156 -90.082031 54.328125 -83.5625 C 48.117188 -77.039062 45.015625 -68.671875 45.015625 -58.453125 C 45.015625 -48.242188 48.117188 -39.878906 54.328125 -33.359375 C 60.535156 -26.835938 68.515625 -23.578125 78.265625 -23.578125 Z M 78.265625 -23.578125 "/></g></g></g><g fill="#ffffff" fill-opacity="1"><g transform="translate(496.013097, 1358.838847)"><g><path d="M 31.59375 -135.0625 C 26.09375 -135.0625 21.570312 -136.710938 18.03125 -140.015625 C 14.5 -143.316406 12.734375 -147.484375 12.734375 -152.515625 C 12.734375 -157.535156 14.5 -161.65625 18.03125 -164.875 C 21.570312 -168.101562 26.09375 -169.71875 31.59375 -169.71875 C 37.09375 -169.71875 41.609375 -168.101562 45.140625 -164.875 C 48.671875 -161.65625 50.4375 -157.535156 50.4375 -152.515625 C 50.4375 -147.484375 48.671875 -143.316406 45.140625 -140.015625 C 41.609375 -136.710938 37.09375 -135.0625 31.59375 -135.0625 Z M 16.5 0 L 16.5 -116.921875 L 46.671875 -116.921875 L 46.671875 0 Z M 16.5 0 "/></g></g></g><g fill="#ffffff" fill-opacity="1"><g transform="translate(547.163468, 1358.838847)"><g><path d="M 67.421875 0 C 55.160156 0 45.335938 -2.984375 37.953125 -8.953125 C 30.566406 -14.929688 26.875 -25.539062 26.875 -40.78125 L 26.875 -91.6875 L 6.828125 -91.6875 L 6.828125 -116.921875 L 26.875 -116.921875 L 30.40625 -148.265625 L 57.046875 -148.265625 L 57.046875 -116.921875 L 88.625 -116.921875 L 88.625 -91.6875 L 57.046875 -91.6875 L 57.046875 -40.546875 C 57.046875 -34.890625 58.257812 -31 60.6875 -28.875 C 63.125 -26.75 67.332031 -25.6875 73.3125 -25.6875 L 87.921875 -25.6875 L 87.921875 0 Z M 67.421875 0 "/></g></g></g><g fill="#ffffff" fill-opacity="1"><g transform="translate(634.614312, 1358.838847)"><g/></g></g><g fill="#ffffff" fill-opacity="1"><g transform="translate(678.928944, 1358.838847)"><g><path d="M 16.03125 0 L 16.03125 -165 L 51.859375 -165 L 104.421875 -60.34375 L 156.28125 -165 L 192.109375 -165 L 192.109375 0 L 161.9375 0 L 161.9375 -113.859375 L 115.96875 -23.578125 L 92.171875 -23.578125 L 46.203125 -113.859375 L 46.203125 0 Z M 16.03125 0 "/></g></g></g><g fill="#ffffff" fill-opacity="1"><g transform="translate(875.281072, 1358.838847)"><g><path d="M 71.421875 2.828125 C 60.109375 2.828125 49.929688 0.234375 40.890625 -4.953125 C 31.859375 -10.140625 24.707031 -17.328125 19.4375 -26.515625 C 14.175781 -35.710938 11.546875 -46.359375 11.546875 -58.453125 C 11.546875 -70.554688 14.21875 -81.203125 19.5625 -90.390625 C 24.90625 -99.585938 32.09375 -106.78125 41.125 -111.96875 C 50.164062 -117.15625 60.34375 -119.75 71.65625 -119.75 C 82.8125 -119.75 92.90625 -117.15625 101.9375 -111.96875 C 110.976562 -106.78125 118.128906 -99.585938 123.390625 -90.390625 C 128.660156 -81.203125 131.296875 -70.554688 131.296875 -58.453125 C 131.296875 -46.359375 128.660156 -35.710938 123.390625 -26.515625 C 118.128906 -17.328125 110.941406 -10.140625 101.828125 -4.953125 C 92.710938 0.234375 82.578125 2.828125 71.421875 2.828125 Z M 71.421875 -23.34375 C 79.273438 -23.34375 86.109375 -26.285156 91.921875 -32.171875 C 97.742188 -38.066406 100.65625 -46.828125 100.65625 -58.453125 C 100.65625 -70.085938 97.742188 -78.847656 91.921875 -84.734375 C 86.109375 -90.628906 79.351562 -93.578125 71.65625 -93.578125 C 63.644531 -93.578125 56.769531 -90.628906 51.03125 -84.734375 C 45.289062 -78.847656 42.421875 -70.085938 42.421875 -58.453125 C 42.421875 -46.828125 45.289062 -38.066406 51.03125 -32.171875 C 56.769531 -26.285156 63.566406 -23.34375 71.421875 -23.34375 Z M 71.421875 -23.34375 "/></g></g></g><g fill="#ffffff" fill-opacity="1"><g transform="translate(1006.339624, 1358.838847)"><g><path d="M 15.328125 0 L 15.328125 -116.921875 L 41.953125 -116.921875 L 44.3125 -97.109375 C 47.925781 -104.023438 53.148438 -109.523438 59.984375 -113.609375 C 66.828125 -117.703125 74.882812 -119.75 84.15625 -119.75 C 98.613281 -119.75 109.847656 -115.191406 117.859375 -106.078125 C 125.867188 -96.960938 129.875 -83.601562 129.875 -66 L 129.875 0 L 99.703125 0 L 99.703125 -63.171875 C 99.703125 -73.234375 97.660156 -80.929688 93.578125 -86.265625 C 89.492188 -91.609375 83.128906 -94.28125 74.484375 -94.28125 C 66.003906 -94.28125 59.050781 -91.296875 53.625 -85.328125 C 48.207031 -79.359375 45.5 -71.03125 45.5 -60.34375 L 45.5 0 Z M 15.328125 0 "/></g></g></g><g fill="#ffffff" fill-opacity="1"><g transform="translate(1137.86958, 1358.838847)"><g><path d="M 72.125 2.828125 C 60.34375 2.828125 49.894531 0.316406 40.78125 -4.703125 C 31.664062 -9.734375 24.515625 -16.804688 19.328125 -25.921875 C 14.140625 -35.035156 11.546875 -45.566406 11.546875 -57.515625 C 11.546875 -69.617188 14.097656 -80.382812 19.203125 -89.8125 C 24.316406 -99.238281 31.390625 -106.582031 40.421875 -111.84375 C 49.460938 -117.113281 60.109375 -119.75 72.359375 -119.75 C 83.835938 -119.75 93.972656 -117.234375 102.765625 -112.203125 C 111.566406 -107.171875 118.441406 -100.296875 123.390625 -91.578125 C 128.347656 -82.859375 130.828125 -73.15625 130.828125 -62.46875 C 130.828125 -60.738281 130.785156 -58.929688 130.703125 -57.046875 C 130.628906 -55.160156 130.515625 -53.195312 130.359375 -51.15625 L 41.484375 -51.15625 C 42.109375 -42.039062 45.289062 -34.890625 51.03125 -29.703125 C 56.769531 -24.515625 63.722656 -21.921875 71.890625 -21.921875 C 78.023438 -21.921875 83.171875 -23.296875 87.328125 -26.046875 C 91.492188 -28.796875 94.597656 -32.367188 96.640625 -36.765625 L 127.28125 -36.765625 C 125.082031 -29.378906 121.429688 -22.660156 116.328125 -16.609375 C 111.222656 -10.566406 104.9375 -5.816406 97.46875 -2.359375 C 90 1.097656 81.550781 2.828125 72.125 2.828125 Z M 72.359375 -95.234375 C 64.972656 -95.234375 58.453125 -93.148438 52.796875 -88.984375 C 47.140625 -84.816406 43.523438 -78.492188 41.953125 -70.015625 L 100.1875 -70.015625 C 99.707031 -77.710938 96.875 -83.835938 91.6875 -88.390625 C 86.507812 -92.953125 80.066406 -95.234375 72.359375 -95.234375 Z M 72.359375 -95.234375 "/></g></g></g><g fill="#ffffff" fill-opacity="1"><g transform="translate(1261.385103, 1358.838847)"><g><path d="M 29.9375 51.859375 L 57.046875 -7.78125 L 49.96875 -7.78125 L 4.484375 -116.921875 L 37.25 -116.921875 L 70.015625 -34.65625 L 104.1875 -116.921875 L 136.25 -116.921875 L 62 51.859375 Z M 29.9375 51.859375 "/></g></g></g></svg>